<?xml version="1.0" encoding="utf-8"?>
<!-- Generator: Adobe Illustrator 23.0.1, SVG Export Plug-In . SVG Version: 6.00 Build 0)  -->
<svg version="1.1" id="Layer_1" xmlns="http://www.w3.org/2000/svg" xmlns:xlink="http://www.w3.org/1999/xlink" x="0px" y="0px"
	 viewBox="0 0 600 600" style="enable-background:new 0 0 600 600;" xml:space="preserve">
<style type="text/css">
	.st0{fill:#2FD5C8;stroke:#000000;stroke-width:15;stroke-miterlimit:10;}
	.st1{fill:none;}
	.st2{stroke:#000000;stroke-width:1.2997;stroke-miterlimit:10;}
	.st3{stroke:#000000;stroke-width:1.3618;stroke-miterlimit:10;}
	.st4{stroke:#000000;stroke-width:0.919;stroke-miterlimit:10;}
	.st5{stroke:#000000;stroke-width:0.889;stroke-miterlimit:10;}
	.st6{fill:#2FD5C8;}
	.st7{stroke:#000000;stroke-width:1.1692;stroke-miterlimit:10;}
	.st8{stroke:#000000;stroke-width:1.2251;stroke-miterlimit:10;}
	.st9{stroke:#000000;stroke-width:0.8268;stroke-miterlimit:10;}
	.st10{stroke:#000000;stroke-width:0.7997;stroke-miterlimit:10;}
</style>
<ellipse class="st0" cx="927" cy="300" rx="287" ry="274"/>
<g>
	<g>
		<path class="st1" d="M912.2,554c0,0,2.8-30.2-4.2-38.9c-7.1-8.7,13.1-23.4,10.1-32.3s0.3-16.1,0.3-16.1l21-81.8l3-5.9l-7.2-3.3
			c0,0,94.6-282.7,105.5-293.2c10.9-10.5,9.2-19,19.7-8.1c10.5,10.9,11.4,27.4,6.6,30.1c-4.8,2.7-82.4,287.4-82.4,287.4l-5.4-0.1
			l-35.8,96.7l-4.4,1.5l-10.3,37.6L912.2,554z"/>
		<path id="XMLID_2_" class="st2" d="M913,550.9c0,0,3.4-39.4-5.2-41.2c-8.7-1.7,11.2-25.3,11.2-25.3l23,5c0,0-9,32.9-13.6,36.6
			C923.6,529.8,913,550.9,913,550.9z"/>
		
			<rect x="905.5" y="414.4" transform="matrix(0.3218 -0.9468 0.9468 0.3218 233.479 1188.6742)" class="st3" width="81.9" height="34"/>
		
			<rect x="929.6" y="467" transform="matrix(0.2631 -0.9648 0.9648 0.2631 223.2134 1253.5355)" class="st4" width="5.2" height="27.3"/>
		<path class="st5" d="M961.1,388.3l14.9,5.5c2.7-7.3-1.8-15.7-9.9-18.8c-8.2-3-17.1,0.4-19.8,7.7c0,0.1-0.1,0.2-0.1,0.3
			L961.1,388.3z"/>
		<path class="st2" d="M946.9,372c0,0,21.1-14.8,30.9,5c9.8,19.9,106.9-314.9,72.5-279.3S946.9,372,946.9,372z"/>
	</g>
	<g>
		<path d="M1031.2,358.3c0.5-0.3,1.3-0.7,2.2-1.2c0.9-0.5,1.2-0.1,0.6,1.2c-1.1,2.2-2,3.7-2.9,4.5c-0.8,0.8-1.8,2-2.9,3.7
			c-3.8,4.1-7.7,8-11.8,11.8c-1.4,1.4-2.9,2.9-4.7,4.5c-1.8,1.6-3.6,3-5.5,4.1c-9,5.4-19.3,8.8-31,10.2c-4.6,0.5-9.3,0.8-14.1,0.8
			c-4.8,0-9.5,0-14.1,0c-5.4-0.3-10.9-0.4-16.3-0.4c-5.4,0-10.9,0-16.3,0c-10.9-0.3-21.8-0.5-32.6-0.6c-10.9-0.1-21.9-0.2-33-0.2
			c-0.5,0-0.5-0.3,0-0.8c-0.5,0.5-0.8,0.5-0.8,0c0-10.1,0-20,0-30c0-9.9-0.1-19.9-0.4-30c0-19,0-37.9,0-56.7
			c0-18.8-0.1-37.7-0.4-56.7c0-15,0-29.8,0-44.7c0-14.8-0.1-29.6-0.4-44.3c-1.1-3.3-2.4-5.3-3.9-6.1c-1.5-0.8-2.9-1-4.3-0.4
			c-1.6,0.5-3.3,1.8-4.9,3.7c-0.5,0.5-0.9,1.2-1,1.8c-0.1,0.7-0.5,1.3-1,1.8c-9.8,17.4-15.5,36.3-17.1,56.7
			c-1.1,14.4,0.1,28.7,3.5,42.8c3.4,14.1,8.6,27.5,15.7,40c0.3,1.6-0.3,3.1-1.6,4.5c-0.5,0.5-1,1.2-1.4,1.8
			c-0.4,0.7-0.9,1.4-1.4,2.2c-2.4,3-5,5.9-7.5,8.6c-2.6,2.7-5.2,5.6-8,8.6c-0.5,0.5-2.1,2-4.7,4.3c-2.6,2.3-5.4,4.8-8.4,7.3
			c-3,2.6-5.8,4.8-8.4,6.7c-2.6,1.9-4,2.6-4.3,2c-9-15.2-15-31.5-17.9-48.9c-2.4-14.7-2.7-29.5-0.6-44.5c2-15,6.3-29.2,12.8-42.8
			c4.3-8.4,9.2-16.4,14.5-23.9c5.3-7.5,11.1-14.7,17.3-21.8c5.7-6.3,11.6-12.4,17.7-18.6c6.1-6.1,12.4-11.9,19-17.3
			c5.7-5.2,11.8-10.1,18.4-14.7c0.5-0.5,1-1,1.4-1.2c0.4-0.3,0.9-0.7,1.4-1.2c0.5-0.5,1.3-1.1,2.2-1.6c1-0.5,1.8-0.9,2.7-1.2
			c0.8-0.5,1.9-0.8,3.3-0.8v0.4h27.3h40c10.3-0.3,20.8-0.4,31.4-0.4s21.1,0,31.4,0c0,1.1-0.4,2-1.2,2.9c-0.5,0.5-0.9,1-1,1.4
			c-0.1,0.4-0.5,0.9-1,1.4c-1.6,2.2-3.3,4.1-5.1,5.9c-1.8,1.8-3.5,3.6-5.1,5.5c-1.9,1.9-3.8,3.7-5.7,5.5c-1.9,1.8-3.8,3.5-5.7,5.1
			c-0.8,0.5-1.8,1.2-2.9,2c-1.1,0.8-2.2,1.2-3.3,1.2h-40.8c-7.6,0-15.1,0-22.4,0c-7.3,0-14.7,0.1-22,0.4h-16.3c0,4.9,0,9.8,0,14.7
			c0,4.9,0.1,9.8,0.4,14.7c0,18.8,0,37.3,0,55.5c0,18.2,0.1,36.7,0.4,55.5h42c5.4,0,10.8,0,16.1,0c5.3,0,10.2-0.1,14.7-0.2
			c4.5-0.1,8.3-0.2,11.4-0.2c3.1,0,5.4,0,6.7,0c0,0.5-1.6,2.4-4.7,5.5c-3.1,3.1-6.6,6.6-10.4,10.4c-4.6,4.6-9.8,9.7-15.5,15.1
			l-60.4,0.4c0,13.6,0,27.1,0,40.6c0,13.5,0.1,27,0.4,40.6v0.4h0.4c4.6,0,9.2,0.1,13.9,0.2c4.6,0.1,9.2,0.2,13.9,0.2
			c8.2,0,16.3,0.1,24.5,0.2c8.2,0.1,16.3,0.2,24.5,0.2c7.3,0.3,14.7,0.5,22.2,0.6c7.5,0.1,14.9-0.1,22.2-0.6
			c5.7-0.5,11.1-1.4,16.3-2.4c1.4-0.5,2.7-1,4.1-1.4c1.4-0.4,2.7-0.9,4.1-1.4c1.6-0.5,2.9-1.1,3.7-1.6c0.5-0.3,0.9-0.4,1.2-0.4
			c0.3,0,0.5-0.1,0.8-0.4L1031.2,358.3z"/>
	</g>
</g>
<image style="overflow:visible;" width="1015" height="785" xlink:href="../Downloads/LogoDesign2PenColorOptionspng.PNG"  transform="matrix(0.5 0 0 0.5 -723 14)">
</image>
<g>
	<path class="st1" d="M354.2,560c-3.4,0.5-6.8,1-10.3,1.5c-12.9,1.9-26.2,2.9-39.7,2.9c-38.6,0-75.2-8-108.3-22.4
		c-16.7-6.3-32.9-14.6-48-24.5c29.7,20.4,63.4,34.7,98.7,42C281.9,566.6,318.6,566.8,354.2,560z"/>
	<path d="M592,286.9c-1.4-14.9-3.9-29.2-7.4-43c-3.7-13.7-8.3-26.9-13.8-39.4c-5.7-12.5-12-24.4-19.2-35.7
		c-7.3-11.2-15.2-21.9-23.9-32c-8.8-10-18.2-19.4-28.3-28.3c-10.2-8.7-21-16.9-32.6-24.5c-11.6-7.5-23.9-14.2-36.9-20.3
		c-1.6-0.7-3.3-1.5-4.9-2.2c-1.7-0.7-3.3-1.5-5-2.2c-3.4-1.4-6.8-2.7-10.2-4.1c-3.5-1.3-7-2.4-10.5-3.7c-0.9-0.3-1.8-0.6-2.6-0.9
		c-0.9-0.3-1.8-0.5-2.7-0.8c-1.8-0.5-3.6-1.1-5.4-1.6c-13.2-3.9-26.6-6.8-40-8.7c-1.8-0.3-3.6-0.5-5.4-0.8
		c-3.8-0.4-7.6-0.8-11.4-1.3c-3.8-0.2-7.6-0.5-11.4-0.7c-0.9-0.1-1.9-0.1-2.8-0.2l-2.8,0l-5.7-0.1c-1.9,0-3.8-0.1-5.7-0.1l-5.6,0.2
		c-30.1,0.7-59.6,6.4-87.6,16.3l-10.4,3.9l-10.2,4.4c-1.7,0.7-3.4,1.6-5,2.4l-5,2.4c-0.2,0.1-0.3,0.2-0.5,0.3
		c-3.2,1.5-6.2,3.3-9.3,5c-13,7.2-25.4,15.5-37.2,24.7c-23.4,18.6-44,41.3-60.3,67.4c-1.6,2.8-3.3,5.5-4.9,8.3
		c-0.9,1.4-1.6,2.8-2.3,4.2l-2.3,4.3l-2.2,4.3c-0.7,1.4-1.4,2.9-2,4.3c-1.3,2.9-2.7,5.8-4,8.7c-5,11.8-9,23.9-12.3,36.1
		c-0.7,3.1-1.4,6.2-2.1,9.3c-0.3,1.5-0.8,3.1-1,4.6l-0.8,4.7l-0.8,4.7c-0.3,1.6-0.6,3.1-0.7,4.7c-0.4,3.1-0.8,6.2-1.1,9.4
		c-1.2,12.5-1.8,25-1.1,37.5c0,32.5,6.4,65.4,19.1,95.9c-8.4-19.3-14.5-39.7-18.2-60.6c-0.6-2.6-0.8-5.2-1.2-7.9l-1.1-7.9l-0.7-7.9
		l-0.3-4l-0.2-2l-0.1-2l-0.3-8c0-1.3-0.1-2.7-0.1-4l0.1-4l0.1-8c0-1.3,0.1-2.7,0.2-4l0.3-4c0.7-12.1,2.5-24.2,4.9-36l2-8.9l0.5-2.2
		l0.6-2.2l1.2-4.4c1.5-5.9,3.5-11.6,5.4-17.3c0.4-1.4,1-2.8,1.6-4.3l1.7-4.2c1.1-2.8,2.2-5.6,3.5-8.4l3.7-8.3
		c1.3-2.7,2.7-5.4,4.1-8.1l2.1-4l2.2-3.9l4.5-7.9l4.9-7.6c0.8-1.3,1.6-2.6,2.5-3.8l2.6-3.7c6.9-10,14.7-19.2,22.8-28.2l6.3-6.5
		c1-1.1,2.1-2.1,3.2-3.2l3.3-3.1l3.3-3.1c1.1-1.1,2.3-2,3.4-3l6.9-5.9c18.8-15.2,39.5-28.3,61.8-38.1c6.7-3.1,12.9-5.7,17.3-8.2
		c4.4-2.3,7.2-4,7.1-5c-0.2-1-3.3-0.9-8.1,0.1c-2.4,0.6-5.2,1.4-8.3,2.4c-1.6,0.5-3.2,1-4.8,1.7c-1.6,0.7-3.3,1.4-5.1,2.2
		c-23.3,10-45.1,23.4-64.8,39.2c-4.8,4.1-9.7,8.1-14.3,12.5l-3.5,3.2l-1.7,1.6l-1.7,1.7l-6.6,6.8c-1.1,1.1-2.1,2.3-3.2,3.5l-3.1,3.6
		l-3.1,3.6c-1,1.2-2,2.5-3,3.7l-5.9,7.4l-5.6,7.7c-0.9,1.3-1.9,2.6-2.7,3.9l-2.6,4l-2.6,4c-0.9,1.3-1.8,2.6-2.5,4l-4.8,8.2l-1.2,2.1
		l-1.1,2.1l-2.2,4.2c-3,5.6-5.5,11.4-8.2,17.2c-1.3,2.9-2.4,5.9-3.5,8.8l-1.7,4.4c-0.5,1.5-1,3-1.5,4.5c-1,3-2,6-3,9l-2.6,9.2
		c-0.4,1.5-0.9,3.1-1.2,4.6l-1.1,4.7l-1.1,4.7c-0.3,1.6-0.7,3.1-1,4.7c-1.1,6.3-2.3,12.5-2.9,18.9l-0.6,4.8l-0.3,2.4l-0.2,2.4
		c-0.2,3.2-0.4,6.4-0.6,9.6c-0.7,16.1-0.1,32.1,1.8,48.1l0.8,6l0.4,3c0.1,1,0.3,2,0.5,3l2.3,11.8c0.9,3.9,1.9,7.8,2.8,11.7
		c0.4,2,1,3.9,1.6,5.8l1.7,5.8c4.8,15.3,10.8,30.1,18.1,44.4c7.3,14.2,15.8,27.8,25.5,40.4c19.3,25.3,42.8,47.3,69.3,64.6
		c26.5,17.3,55.9,30,86.4,37.5c15.3,3.7,30.8,6,46.4,7.1l5.9,0.4l2.9,0.2c1,0,2,0,2.9,0.1l11.7,0.1l11.7-0.4c1,0,1.9-0.1,2.9-0.1
		l2.9-0.3l5.8-0.5c15.5-1.5,30.8-4.3,45.8-8.3c14.9-4.1,29.5-9.5,43.4-16c13.9-6.5,27.4-14.1,39.9-22.8
		c12.5-8.7,24.3-18.5,35.2-29.1c2.7-2.7,5.4-5.3,7.9-8.1l3.8-4.2c1.3-1.4,2.6-2.8,3.8-4.3c2.4-2.9,4.8-5.8,7.2-8.7l6.8-9
		c8.8-12.3,16.4-25.2,22.9-38.6c1.3-2.6,2.3-5,2.9-6.7c0.6-1.7,0.6-2.8,0.2-2.7c-0.2,0-0.5,0.2-1,0.7c-1.3,1.4-3.4,4.8-5.2,8.5
		l1.7-2.1c-15.5,27.5-35.6,53.1-59.7,74.8c-24.1,21.7-52.3,39.4-82.6,51.2c-1.3,0.4-2.7,0.8-4,1.2c-1.4,0.3-2.8,0.7-4.1,1
		c-2.8,0.7-5.6,1.4-8.4,2.1c-2.9,0.6-5.7,1.2-8.7,1.8c-1.5,0.3-2.9,0.6-4.4,0.9c-1.5,0.3-3,0.5-4.5,0.8c-3,0.5-6,1-9,1.5
		c-3.1,0.4-6.1,0.8-9.2,1.2c-1.5,0.2-3.1,0.5-4.7,0.6c-1.6,0.1-3.1,0.3-4.7,0.4c-1.6,0.1-3.1,0.3-4.7,0.4c-1.6,0.1-3.2,0.3-4.8,0.3
		c1.5-0.1,3.1-0.3,4.6-0.5l4.6-0.6c3-0.4,6.1-0.8,9.1-1.4c3-0.6,6.1-1.2,9.1-1.7c3-0.7,6-1.4,9-2.2l4.5-1.1l4.4-1.3
		c3-0.9,5.9-1.7,8.9-2.7l8.7-3.1l2.2-0.8c0.7-0.3,1.4-0.6,2.2-0.9l4.3-1.7c33.2-13.6,61.3-33.6,83.8-57.3
		c22.6-23.7,39.8-51.2,51.4-81.2c0.3-0.7-0.4-0.4-0.8-0.4c0.7-2.3,0.4-2.8-0.7-1.1c-1,1.4-2.6,4.8-3.4,7
		c-9.5,19.3-21.2,37.7-35.4,54c-6.9,8.3-14.6,15.9-22.6,23.3c-4.1,3.5-8.1,7.2-12.4,10.5l-3.2,2.5c-1.1,0.8-2.1,1.7-3.2,2.5
		l-6.6,4.7c-2.2,1.6-4.5,3-6.7,4.5l-3.4,2.2c-1.1,0.7-2.3,1.5-3.4,2.1c-4.7,2.7-9.3,5.5-14.2,7.9c-9.5,5.1-19.6,9.4-29.7,13.3
		c-5.1,1.7-10.2,3.7-15.4,5.1c-2.6,0.8-5.2,1.6-7.8,2.3l-7.9,1.9c-1.3,0.3-2.6,0.7-4,1l-4,0.8l-8,1.5l-8.1,1.1l-4,0.6
		c-1.3,0.2-2.7,0.3-4.1,0.4c-43.3,4.5-87.9-1.7-128.2-18.8c-40.5-16.8-76.5-44.4-103.9-79c-0.5-0.7-0.9-1.3-1.4-2
		c-21.2-28.7-36.5-61.6-44.2-96.4c-0.2-0.8-0.4-1.5-0.6-2.2c-0.2-0.7-0.3-1.4-0.5-2.1c-0.3-1.3-0.7-2.6-1-3.6
		c-0.7-2-1.3-3.3-1.7-3.2c-0.2,0.1-0.4,0.4-0.5,1.1c-0.3-1.7-0.8-3.5-1-5.2l-0.8-5.3c-0.5-3.5-1.1-7-1.4-10.6l-0.5-5.3l-0.3-2.7
		c-0.1-0.9-0.2-1.8-0.2-2.7l-0.5-10.7c-0.1-1.5,0-2.9-0.1-4.3c0-1.4-0.1-2.6-0.2-3.9c-0.1-2.4-0.4-4.5-0.6-6.1
		c1.3-15.2,3.9-30,7.7-44.3c3.8-14.3,8.8-28,15-41c-1.8,4.6-3.8,9.2-5.3,14c-0.8,2.4-1.6,4.7-2.4,7.1c-0.7,2.4-1.4,4.8-2.1,7.2
		c-2.9,9.9-4.8,20-6.4,30c-0.4,2.5-0.6,5.1-0.9,7.6l-0.4,3.8l-0.2,1.9c-0.1,0.6-0.1,1.3-0.1,1.9c-0.2,2.5-0.3,5.1-0.5,7.6l-0.2,3.8
		l0,3.8c-0.4,20.3,1.7,40.4,6.1,59.9c4.5,19.4,11.4,38,20.3,55.4l1.6,3.3c0.5,1.1,1.2,2.1,1.8,3.2c1.2,2.1,2.4,4.2,3.6,6.3l0.9,1.6
		c0.3,0.5,0.6,1,1,1.5l1.9,3.1c1.3,2,2.6,4.1,3.9,6.1c1.4,2,2.8,3.9,4.2,5.9c1.4,1.9,2.7,3.9,4.3,5.8c3,3.7,5.8,7.6,9,11.1
		c12.4,14.4,26.3,27.1,41.2,37.9c14.9,10.8,30.8,19.7,47.1,26.6c16.3,6.9,33.1,11.9,49.8,15c16.7,3.1,33.4,4.2,49.7,3.7
		c1.1,0,1.8-0.2,2-0.3c0.2-0.2-0.1-0.3-0.9-0.6c-1.2-0.5-4.1-0.7-6.6-0.7c-31.1-0.4-62.9-7-92.6-20.2
		c-29.7-13.1-57.3-32.7-80.1-57.6c-22.8-24.8-40.5-55.1-51-88.2c-10.6-33.1-13.8-69-9.1-104.4c3.1-13.6,7.2-27.7,12.5-42
		c5.3-14.2,12-28.5,20-42.3c8-13.7,17.4-26.9,27.9-39c10.5-12.1,22.1-23,34.3-32.5c2.8-2.1,5.4-4.3,7.2-6.1c1.9-1.7,3-3,3-3.6
		c0-0.6-1.2-0.4-3.2,0.6c-2,0.9-4.5,2.7-7.3,4.7l-3.5,2.5l-3.4,2.7c-2.2,1.8-4.5,3.6-6.7,5.5c-4.3,3.9-8.7,7.7-12.7,11.9
		c-4.2,4-8,8.4-12,12.7c-1.9,2.2-3.7,4.5-5.6,6.7l-1.3,1.6c7.6-9.7,16-18.9,25.1-27.4c10.7-10,22.2-19.2,34.6-27.1
		c13.6-8.1,27.9-14.9,42.8-20.4c2.6-1,5.4-2.1,7.8-3.2c2.4-1.1,4.4-2.2,5.4-3.1c0.4-0.4,0.5-0.6,0.5-0.8
		c33.6-11.4,69.3-15.7,104.1-13.1c34.8,2.6,68.8,12.2,99.4,27.8c15.3,7.8,29.8,17.1,43.3,27.6c13.5,10.6,25.8,22.5,36.9,35.4
		c22.2,25.8,39.3,55.9,50.1,88.2c1.6,4.7,2.8,8.7,4,11.1c1.1,2.5,2.1,3.5,2.6,2.4c0.5-1.1,0.4-4-0.1-7.8c-0.2-1.9-0.7-4.1-1.3-6.4
		c-0.6-2.3-1.3-4.7-2-7.1c-6-19.1-14.5-37.2-24.8-54l-1.9-3.2c-0.6-1-1.4-2-2.1-3.1l-4.1-6.1l-1-1.5l-1.1-1.5l-2.2-2.9
		c-1.5-2-2.9-3.9-4.5-5.9c-6.2-7.6-12.6-15-19.7-21.9l-5.2-5.2l-5.5-4.9c-3.6-3.4-7.5-6.4-11.2-9.5c-1.9-1.6-3.9-3-5.8-4.5l-5.9-4.4
		l-6.1-4.1c-2-1.4-4-2.8-6.2-4c-16.7-10.4-34.5-19.1-53.1-25.9C345.5,44.6,293,41.4,243.6,52.3c-12.3,2.8-24.5,6.2-36.3,10.8
		c-11.8,4.5-23.4,9.7-34.4,16c-22.2,12.3-42.6,28-60.3,46.5c-9.5,9.1-18.4,18.9-26.6,29.5c-8.1,10.7-15.4,22.1-21.9,34.1
		c0.5-0.9,0.9-1.9,1.4-2.8l1.5-2.7c1-1.8,2-3.7,2.9-5.5c0.5-0.9,1-1.8,1.5-2.7l1.6-2.7c1.1-1.8,2.1-3.6,3.2-5.4
		c16.3-26.2,37.1-49.1,60.7-67.8c23.7-18.7,50.3-33.1,78.4-43l10.6-3.5l10.8-3c1.8-0.5,3.6-0.9,5.4-1.3l5.4-1.3
		c3.6-0.9,7.3-1.5,11-2.2c14.7-2.6,29.6-4.1,44.6-4.4c15-0.2,30.1,0.6,45.1,2.6l5.6,0.8c1.9,0.3,3.8,0.5,5.6,0.9
		c3.7,0.7,7.5,1.4,11.2,2.2c3.7,0.9,7.4,1.8,11.1,2.7c1.9,0.4,3.7,1,5.5,1.5l5.5,1.6c13.9,4.2,27.2,9.4,40,15.4
		c2.5,1.2,5,2.5,7.5,3.7c10,5.1,19.5,10.8,28.7,17c11.5,7.6,22.2,16.2,32.2,25.3c5.1,4.5,9.8,9.4,14.6,14.2c2.3,2.5,4.5,5,6.8,7.5
		l1.7,1.9l1.6,1.9l3.2,3.9l3.2,3.9c1.1,1.3,2,2.7,3.1,4l3,4.1c1,1.4,2.1,2.7,3,4.1c1.9,2.8,3.8,5.6,5.7,8.4c1,1.4,1.8,2.8,2.7,4.3
		l2.6,4.3c6.9,11.6,13.2,23.8,18.2,36.5c5.1,12.7,9.6,25.8,12.7,39.5c3.2,13.6,5.6,27.6,6.5,41.9c0.2,2.6,0.5,4.4,0.8,5.4
		c0.3,0.9,0.6,0.9,1-0.1C592.3,297.9,592.5,292.1,592,286.9z M195.9,541.9c0.3,0.1,0.5,0.2,0.8,0.3c3,1.4,6.1,2.4,9.2,3.6
		c3.1,1.1,6.2,2.4,9.4,3.3c3.2,1,6.4,2,9.5,3c3.2,0.9,6.5,1.7,9.7,2.6l2.4,0.7c0.8,0.2,1.6,0.4,2.5,0.6l4.9,1.1l4.9,1.1
		c1.6,0.4,3.3,0.6,5,0.9c3.3,0.6,6.6,1.2,10,1.7l10,1.2c23.3,2.5,46.8,2.3,69.7-0.5c3.4-0.4,6.9-0.9,10.3-1.5
		c-35.5,6.8-72.3,6.6-107.6-0.6c-35.3-7.2-69-21.6-98.7-42C163,527.3,179.1,535.6,195.9,541.9z"/>
	<path d="M270,578.7c-2.7-0.4-5.3-0.8-8-1.2c-2.7-0.4-5.3-1-8-1.5c-2.6-0.5-5.3-1-7.9-1.5l-7.9-1.9c-2.6-0.6-5.3-1.2-7.9-2
		c-5.2-1.5-10.4-2.8-15.5-4.5c-20.5-6.5-40-14.8-57.9-23.8c-1.7-0.8-2.8-1.2-2.2-0.5c0.7,0.8,2.6,2,4.6,3
		c17.3,8.5,36.3,16.4,56.2,22.6c19.8,6.2,40.6,10.8,61,13.2c2.5,0.2,4.5,0.2,4.7-0.1c0.4-0.2-1.3-0.6-3.4-0.8
		C275.3,579.6,272.7,579.1,270,578.7z"/>
	<path d="M131.9,528.4c-27.9-18.4-53.1-42.4-73.1-71c-20.1-28.5-35.1-61.5-43-96.7c-8-35.1-9-72.1-3-108.3
		c3-18.1,7.9-35.9,14.4-53.1c6.6-17.2,14.9-33.8,24.7-49.4c8-12.7,17-24.6,26.6-35.8c2.5-2.7,5-5.5,7.4-8.2c2.5-2.7,5.2-5.2,7.7-7.9
		c1.3-1.3,2.6-2.6,3.9-3.9l4.1-3.7c2.7-2.5,5.4-5,8.2-7.3c11.1-9.5,23-18,35.3-25.6l4.6-2.8c1.5-1,3.1-1.9,4.7-2.7l9.5-5.2
		c3.2-1.7,6.5-3.2,9.7-4.8c1.6-0.8,3.2-1.6,4.9-2.3l5-2.2c6.6-3,13.4-5.4,20.1-8c6.9-2.2,13.7-4.6,20.7-6.3c6.9-2,14-3.4,21.1-5
		c7.1-1.2,14.2-2.6,21.5-3.3c7.2-1,14.4-1.4,21.7-2c3.6-0.1,7.3-0.2,10.9-0.3c1.8,0,3.6-0.1,5.5-0.1l5.5,0.1l5.5,0.1l2.7,0.1
		c0.9,0,1.8,0.1,2.7,0.2c3.7,0.2,7.3,0.5,11,0.7c1.8,0.1,3.7,0.4,5.5,0.6l5.5,0.6c1.8,0.2,3.7,0.4,5.5,0.7l5.5,0.9
		c19.2,3,38,8,55.9,14.3c17.9,6.3,34.9,14.1,50.7,22.6c2.7,1.5,4.4,2.1,3.6,1.2c-0.9-1.1-3.6-3-6.6-4.7
		c-33.2-18.1-69.7-30.5-107.4-36c-18.9-2.8-38-3.8-57.1-3.1c-19.1,0.7-38.3,3.1-57.1,7.3c-37.6,8.4-73.9,24.2-105.8,46.5
		c-31.9,22.2-59.4,50.9-80,84C31,180,17.5,215.5,11.5,252.1c-6,36.6-4.9,74.1,3.4,109.8c4.1,17.8,10,35.2,17.4,51.6
		c7.5,16.5,16.5,32,26.8,46.4c20.7,28.9,46.5,53,75,71.2c1.5,1,2.5,1.3,2.1,0.6C135.5,531,133.4,529.4,131.9,528.4z"/>
	<path d="M20.5,239.5c0.9-3.8,1.7-7.6,2.6-11.4c1.1-3.8,2.1-7.5,3.2-11.2c0.5-1.9,1.2-3.7,1.8-5.6l1.9-5.5l1-2.8
		c0.3-0.9,0.6-1.8,1-2.7l2.2-5.4l2.2-5.4c0.7-1.8,1.6-3.5,2.4-5.3l2.5-5.3l1.2-2.6c0.4-0.9,0.9-1.7,1.3-2.6
		c1.8-3.4,3.6-6.8,5.4-10.3l5.9-10c8.1-13.1,17.3-25.5,27.4-37.1l7.7-8.6l8.1-8.2c1.3-1.4,2.8-2.7,4.2-4l4.2-3.9
		c2.8-2.7,5.7-5.1,8.7-7.5l4.4-3.7c1.5-1.2,3-2.3,4.5-3.5l4.6-3.5l2.3-1.7c0.8-0.6,1.6-1.1,2.3-1.6l9.4-6.5l9.7-6.1
		c13.1-7.9,26.8-14.9,41-20.8c3.6-1.4,7.1-2.9,10.7-4.3c3.6-1.3,7.3-2.5,10.9-3.8l2.7-1c0.9-0.3,1.8-0.6,2.8-0.8l5.6-1.7l5.6-1.7
		l5.6-1.4c2.6-0.6,4.1-1.2,4.1-1.5c-0.2-0.3-2.4,0-4.7,0.5c-20.2,4.9-39.9,12-58.6,21C159.6,51,141.9,62,125.5,74.7
		c-16.5,12.7-31.7,27.1-45.4,43c-13.6,16-25.7,33.4-36,52.1c-2.9,5-5.3,10.2-7.8,15.4c-1.3,2.6-2.4,5.2-3.5,7.9
		c-1.1,2.6-2.2,5.3-3.3,7.9l-2.9,8.1c-1,2.7-2,5.4-2.7,8.1c-1.6,5.5-3.4,11-4.6,16.6c-0.7,2.8-1.3,5.6-2,8.4c-0.5,2.8-1,5.7-1.5,8.5
		c-1.1,5.7-1.6,11.5-2.3,17.2c-0.4,2.9-0.5,5.8-0.7,8.7c-0.2,2.9-0.3,5.8-0.5,8.8c0,2.9,0,5.9,0,8.8c0,3,0,5.9,0.2,8.9
		c0.2,4,0.5,7.9,0.7,11.8c0.4,3.9,0.9,7.8,1.3,11.6l0.3,2.9l0.5,2.8c0.3,1.9,0.6,3.8,0.9,5.7c0.3,1.9,0.6,3.8,0.9,5.6
		c0.4,1.9,0.8,3.7,1.2,5.5c0.4,1.8,0.8,3.7,1.2,5.5l0.6,2.7c0.2,0.9,0.5,1.8,0.7,2.7c1,3.6,1.9,7.2,2.9,10.8
		c2.2,7.1,4.4,14.1,7.1,21c5.2,13.8,11.2,27.2,18.5,40.2c7.2,13,15.3,25.8,24.6,38.3c1.2,1.6,2.7,3.1,3.2,3.4c0.3-0.1-0.4-1.4-1.7-3
		c-20-27-35.3-56.1-45.8-87c-5.2-15.5-9-31.4-11.5-47.7c-2.5-16.3-3.6-32.9-3.1-49.9C15.4,270.4,17.3,254.8,20.5,239.5z"/>
	<path d="M145.4,480.4c-1.7-1.3-3.5-2.5-5.3-3.8c-1.7-1.4-3.4-2.7-5.1-4.1c-3.5-2.7-6.7-5.8-10.1-8.8c-0.8-0.8-1.7-1.5-2.5-2.3
		c-0.8-0.8-1.6-1.6-2.4-2.4c-1.6-1.6-3.2-3.3-4.8-4.9c-1.6-1.7-3.1-3.5-4.6-5.2c-0.8-0.9-1.5-1.8-2.3-2.6l-1.2-1.3
		c-0.4-0.5-0.7-0.9-1.1-1.4c-11.8-14.7-22.2-31.4-30.2-49.5c-7.9-18.1-13.5-37.5-16.5-57.2c-2.9-19.7-3.2-39.7-1.3-59
		c0.1-0.9,0.1-1.8,0.2-2.7c0.1-0.8,0.1-1.6,0.1-2.3c0-1.3-0.1-2.3-0.3-2.5c-0.3-0.1-0.6,0.5-0.9,1.6c-0.2,0.5-0.3,1.2-0.5,2
		c-0.2,0.8-0.3,1.7-0.4,2.7c-2.2,20-1.9,40.8,1.2,61.2l1.4,7.6l0.7,3.8c0.3,1.3,0.6,2.5,0.9,3.8l1.8,7.5c0.6,2.5,1.4,5,2.2,7.4
		c1.3,5,3.2,9.8,4.9,14.6l0.6,1.8l0.7,1.8l1.5,3.5l1.5,3.5c0.5,1.2,1,2.4,1.6,3.5c2.3,4.6,4.3,9.2,6.9,13.6c1.2,2.2,2.4,4.4,3.7,6.6
		c1.3,2.1,2.7,4.3,4,6.4l2,3.2l2.1,3.1c1.4,2,2.8,4.1,4.3,6.1c1.5,2,3,3.9,4.5,5.8c1.5,1.9,3,3.9,4.6,5.7
		c12.6,14.7,26.6,27.2,41.1,37.1c1.5,1,2,0.9,1.2-0.1C148.7,483.1,146.8,481.3,145.4,480.4z"/>
	<path d="M577,300c-0.3,1.1-0.4,3.8-0.2,5.4c1.2,15.7,0.8,32.5-1.3,49.3c-2.2,16.8-6,33.5-11,49.3c-6.1,14.9-13.5,29.2-21.9,42.7
		c-8.5,13.5-18,26.3-28.6,38.2c-10.6,11.8-22.1,22.8-34.4,32.8c-6.1,5.1-12.5,9.7-19,14.3l-9.9,6.6l-10.2,6.1
		c-11.1,5.5-22.3,10.5-33.8,14.3c-5.7,2.1-11.5,3.6-17.3,5.3c-1.4,0.4-2.9,0.8-4.4,1.1l-4.4,1l-4.4,1c-0.7,0.2-1.5,0.4-2.2,0.5
		l-2.2,0.4c-2.9,0.6-5.9,1.1-8.8,1.7l-2.2,0.4l-2.2,0.3l-4.5,0.6l-4.5,0.6c-1.5,0.2-3,0.5-4.5,0.6c-3,0.3-6,0.6-9,0.9
		c-3,0.4-6,0.5-9.1,0.7c-3,0.2-6.1,0.4-9.2,0.5c-3.1,0.1-6.1,0.1-9.2,0.2c-1.5,0-3.1,0.1-4.7,0.1c-1.6,0-3.1-0.1-4.7-0.1
		c-21.5-0.3-42.9-3-63.8-8.1c-20.9-5.1-41-12.8-60.1-22.4c-4.8-2.3-9.4-5.1-14.1-7.6c-2.4-1.3-4.6-2.7-6.9-4.1l-6.8-4.2l-6.6-4.5
		c-2.2-1.5-4.4-3-6.5-4.6c-4.2-3.2-8.5-6.3-12.6-9.8l-6.1-5.1l-5.9-5.4c-4-3.5-7.7-7.3-11.4-11c-1.9-1.8-3.7-3.8-5.5-5.8l-5.4-5.8
		c-1.7-2-3.4-4-5.1-6.1l-2.5-3l-1.3-1.5l-1.2-1.6C53.8,431.4,37,393.7,28.5,354.2c-1-5.7-2.5-10.2-3.2-10.1
		c-0.7,0.1-0.5,4.9,0.6,10.6c4,20.2,10.2,39.9,18.6,58.7c-0.5-0.5-0.8-0.6-0.9-0.3c-15.1-32.8-23.6-68.9-24.8-105.2
		c-1.3-36.3,4.6-72.9,17.4-107c1.5-3.7,2.3-6.7,1.8-6.9c-0.5-0.2-2,2.7-3.5,6.4c-6.8,17.8-11.7,36.3-14.6,55.1
		c-2.9,18.8-3.9,37.8-2.9,56.7c1.9,37.8,11.8,75.2,28.6,108.8c0.5,1.3,1.1,2.7,1.8,4.1c0.7,1.4,1.5,2.9,2.3,4.4
		c7.6,13.9,16.2,27.1,25.9,39.4c9.7,12.3,20.4,23.7,31.9,34.1c11.5,10.4,23.8,20.1,37,28.5c13.2,8.4,27,15.9,41.5,22.2
		c2.6,1.1,5.2,2.2,7.8,3.3c2.6,1,5.3,2,7.9,3c5.2,2.1,10.6,3.7,15.9,5.4c2.6,0.9,5.3,1.6,8,2.3c2.7,0.7,5.4,1.5,8,2.2
		c2.7,0.6,5.4,1.2,8.1,1.8c2.7,0.6,5.4,1.3,8.1,1.7c21.8,4.1,43.9,5.9,65.8,5.3c22-0.6,43.9-3.8,65.2-9.6l8-2.2l7.9-2.6
		c5.3-1.6,10.4-3.7,15.6-5.7c2.6-0.9,5.1-2.1,7.7-3.2l7.6-3.4l7.4-3.8l3.7-1.9c1.2-0.6,2.4-1.4,3.6-2c15.4-8.5,29.8-18.7,43-30.1
		c13.3-11.4,25.5-24.1,36.8-37.8c9.5-11.5,18.3-23.8,25.9-36.5c0.9-1.6,1.9-3.2,2.8-4.8l1.4-2.4c0.5-0.8,0.8-1.6,1.3-2.4
		c1.7-3.2,3.3-6.5,4.9-9.7c2.9-6.6,5.7-13,7.8-19.5c6-17.8,9.6-35.1,11.3-51.9c1.7-16.8,1.7-33.1,0.3-48.9
		C577.6,298.7,577.2,298.6,577,300z"/>
	<path d="M234.4,424.6v0.2C234.4,424.8,234.3,424.7,234.4,424.6c-0.2-0.1-0.3-0.1-0.3-0.2c0.1,0,0.1,0,0.2,0
		c-0.1-0.1-0.2-0.2-0.3-0.3c-0.2-0.1-0.4-0.1-0.5-0.1l0.7,0.7c0,0,0,0,0,0c0,0,0,0,0,0l0.7,0.7c0-0.1,0-0.3-0.1-0.5
		C234.6,424.8,234.5,424.7,234.4,424.6z"/>
	<g>
		<path class="st6" d="M274.2,562l-10-1.2c-3.3-0.5-6.6-1.1-10-1.7c-1.7-0.3-3.3-0.5-5-0.9l-4.9-1.1l-4.9-1.1
			c-0.8-0.2-1.6-0.3-2.5-0.6l-2.4-0.7c-3.2-0.9-6.5-1.7-9.7-2.6c-3.2-1-6.4-2-9.5-3c-3.2-0.9-6.3-2.2-9.4-3.3
			c-3.1-1.2-6.2-2.2-9.2-3.6c-0.3-0.1-0.5-0.2-0.8-0.3c33.1,14.4,69.8,22.4,108.3,22.4c13.5,0,26.7-1,39.7-2.9
			C321,564.3,297.5,564.5,274.2,562z"/>
		<path class="st6" d="M184.6,63.4c1.7-0.8,3.3-1.7,5-2.4l10.2-4.4l10.4-3.9c28-9.9,57.5-15.6,87.6-16.3l5.6-0.2
			c1.9,0,3.8,0,5.7,0.1l5.7,0.1l2.8,0c0.9,0,1.9,0.1,2.8,0.2c3.8,0.2,7.6,0.5,11.4,0.7c3.8,0.4,7.6,0.8,11.4,1.3
			c1.8,0.2,3.6,0.5,5.4,0.8c-14.4-2.4-29.3-3.6-44.4-3.6c-45.2,0-87.8,11-125.2,30.4c0.2-0.1,0.3-0.2,0.5-0.3L184.6,63.4z"/>
		<path class="st6" d="M572.7,300c0-97.1-53.2-181.9-132.4-227.9c-2.5-1.3-5-2.5-7.5-3.7c-12.7-6-26.1-11.1-40-15.4l-5.5-1.6
			c-1.9-0.5-3.7-1.1-5.5-1.5c-3.7-0.9-7.4-1.8-11.1-2.7c-3.7-0.7-7.5-1.4-11.2-2.2c-1.9-0.4-3.7-0.6-5.6-0.9l-5.6-0.8
			c-15-2-30.1-2.8-45.1-2.6c-15,0.3-29.9,1.8-44.6,4.4c-3.7,0.7-7.4,1.2-11,2.2l-5.4,1.3c-1.8,0.4-3.6,0.8-5.4,1.3l-10.8,3
			l-10.6,3.5c-28.1,9.9-54.7,24.4-78.4,43c-23.6,18.7-44.4,41.6-60.7,67.8c-1.1,1.8-2.2,3.6-3.2,5.4l-1.6,2.7
			c-0.5,0.9-1,1.8-1.5,2.7c-1,1.8-2,3.7-2.9,5.5l-1.5,2.7c-0.5,0.9-0.9,1.9-1.4,2.8c6.5-12,13.8-23.4,21.9-34.1
			c8.2-10.6,17.1-20.5,26.6-29.5c17.7-18.4,38.1-34.2,60.3-46.5c11-6.3,22.6-11.5,34.4-16c11.8-4.6,24-8,36.3-10.8
			c49.4-10.9,101.9-7.7,150.1,9.8c18.7,6.8,36.5,15.5,53.1,25.9c2.1,1.2,4.1,2.7,6.2,4l6.1,4.1l5.9,4.4c2,1.5,4,2.9,5.8,4.5
			c3.8,3.1,7.7,6.1,11.2,9.5l5.5,4.9l5.2,5.2c7,6.9,13.4,14.3,19.7,21.9c1.5,1.9,3,3.9,4.5,5.9l2.2,2.9l1.1,1.5l1,1.5l4.1,6.1
			c0.7,1,1.4,2,2.1,3.1l1.9,3.2c10.3,16.8,18.8,34.9,24.8,54c0.8,2.4,1.4,4.8,2,7.1c0.6,2.3,1.1,4.4,1.3,6.4
			c0.5,3.9,0.6,6.8,0.1,7.8c-0.5,1.1-1.4,0-2.6-2.4c-1.2-2.5-2.4-6.4-4-11.1c-10.8-32.3-27.9-62.3-50.1-88.2
			c-11.1-12.9-23.5-24.8-36.9-35.4c-13.5-10.6-28-19.8-43.3-27.6c-30.6-15.6-64.6-25.2-99.4-27.8c-34.9-2.6-70.5,1.7-104.1,13.1
			c0.1,0.2-0.1,0.4-0.5,0.8c-1,0.9-3,2-5.4,3.1c-2.4,1.1-5.2,2.1-7.8,3.2c-14.8,5.4-29.1,12.3-42.8,20.4c-12.4,8-24,17.1-34.6,27.1
			c-9,8.5-17.4,17.7-25.1,27.4l1.3-1.6c1.9-2.2,3.7-4.5,5.6-6.7c3.9-4.3,7.7-8.7,12-12.7c4-4.2,8.4-8,12.7-11.9
			c2.2-1.9,4.5-3.7,6.7-5.5l3.4-2.7l3.5-2.5c2.8-2.1,5.3-3.8,7.3-4.7c2-0.9,3.2-1.2,3.2-0.6c0,0.6-1.2,1.9-3,3.6
			c-1.8,1.8-4.3,4-7.2,6.1c-12.2,9.5-23.8,20.4-34.3,32.5c-10.5,12.1-19.9,25.3-27.9,39c-8,13.7-14.7,28-20,42.3
			c-5.4,14.2-9.4,28.4-12.5,42c-4.7,35.3-1.4,71.3,9.1,104.4c10.5,33.1,28.2,63.4,51,88.2c22.8,24.9,50.4,44.5,80.1,57.6
			c29.7,13.2,61.5,19.8,92.6,20.2c2.5,0,5.4,0.2,6.6,0.7c0.8,0.2,1.1,0.4,0.9,0.6c-0.2,0.2-0.9,0.3-2,0.3
			c-16.2,0.5-32.9-0.6-49.7-3.7c-16.7-3.1-33.5-8.1-49.8-15c-16.3-6.9-32.2-15.8-47.1-26.6c-14.9-10.8-28.7-23.6-41.2-37.9
			c-3.2-3.5-6-7.3-9-11.1c-1.5-1.8-2.9-3.8-4.3-5.8c-1.4-2-2.8-3.9-4.2-5.9c-1.3-2-2.6-4.1-3.9-6.1l-1.9-3.1c-0.3-0.5-0.7-1-1-1.5
			l-0.9-1.6c-1.2-2.1-2.4-4.2-3.6-6.3c-0.6-1.1-1.2-2.1-1.8-3.2l-1.6-3.3c-8.8-17.4-15.8-36-20.3-55.4c-4.4-19.4-6.5-39.6-6.1-59.9
			l0-3.8l0.2-3.8c0.2-2.5,0.3-5.1,0.5-7.6c0-0.6,0.1-1.3,0.1-1.9l0.2-1.9l0.4-3.8c0.3-2.5,0.6-5.1,0.9-7.6c1.6-10.1,3.5-20.2,6.4-30
			c0.7-2.4,1.3-4.8,2.1-7.2c0.8-2.4,1.6-4.7,2.4-7.1c1.5-4.8,3.5-9.3,5.3-14c-6.2,13-11.2,26.7-15,41c-3.8,14.3-6.4,29.1-7.7,44.3
			c0.3,1.6,0.5,3.6,0.6,6.1c0.1,1.2,0.1,2.5,0.2,3.9c0,1.4,0,2.8,0.1,4.3l0.5,10.7c0,0.9,0.1,1.8,0.2,2.7l0.3,2.7l0.5,5.3
			c0.3,3.6,0.9,7.1,1.4,10.6l0.8,5.3c0.3,1.8,0.7,3.5,1,5.2c0.1-0.6,0.2-1,0.5-1.1c0.4,0,1.1,1.2,1.7,3.2c0.3,1,0.7,2.2,1,3.6
			c0.2,0.7,0.3,1.4,0.5,2.1c0.2,0.7,0.4,1.5,0.6,2.2c7.7,34.8,22.9,67.6,44.2,96.4c0.5,0.7,1,1.3,1.4,2
			c27.4,34.6,63.4,62.2,103.9,79c40.4,17.1,84.9,23.3,128.2,18.8c1.4-0.1,2.7-0.2,4.1-0.4l4-0.6l8.1-1.1l8-1.5l4-0.8
			c1.3-0.3,2.6-0.6,4-1l7.9-1.9c2.6-0.7,5.2-1.5,7.8-2.3c5.2-1.4,10.3-3.4,15.4-5.1c10.1-3.9,20.1-8.1,29.7-13.3
			c4.9-2.4,9.5-5.2,14.2-7.9c1.2-0.7,2.3-1.4,3.4-2.1l3.4-2.2c2.3-1.5,4.6-2.9,6.7-4.5l6.6-4.7c1.1-0.8,2.2-1.6,3.2-2.5l3.2-2.5
			c4.3-3.3,8.3-6.9,12.4-10.5c7.9-7.3,15.6-15,22.6-23.3c14.2-16.3,25.9-34.7,35.4-54c0.8-2.3,2.3-5.6,3.4-7
			c1.2-1.7,1.5-1.2,0.7,1.1c0.3,0.1,1.1-0.3,0.8,0.4c-11.6,30-28.8,57.4-51.4,81.2c-22.6,23.7-50.6,43.7-83.8,57.3l-4.3,1.7
			c-0.7,0.3-1.4,0.6-2.2,0.9l-2.2,0.8l-8.7,3.1c-2.9,1-5.9,1.8-8.9,2.7l-4.4,1.3l-4.5,1.1c-3,0.7-6,1.5-9,2.2
			c-3,0.6-6.1,1.2-9.1,1.7c-3,0.6-6.1,1-9.1,1.4l-4.6,0.6c-1.5,0.2-3,0.4-4.6,0.5c1.6,0,3.2-0.2,4.8-0.3c1.6-0.1,3.2-0.3,4.7-0.4
			c1.6-0.1,3.1-0.3,4.7-0.4c1.6-0.1,3.1-0.4,4.7-0.6c3.1-0.4,6.2-0.8,9.2-1.2c3-0.5,6-1,9-1.5c1.5-0.3,3-0.5,4.5-0.8
			c1.5-0.3,2.9-0.6,4.4-0.9c2.9-0.6,5.8-1.2,8.7-1.8c2.8-0.7,5.6-1.4,8.4-2.1c1.4-0.3,2.8-0.7,4.1-1c1.4-0.4,2.7-0.8,4-1.2
			c30.4-11.9,58.6-29.5,82.6-51.2c24.1-21.7,44.2-47.3,59.7-74.8l-1.7,2.1c1.9-3.7,4-7,5.2-8.5C563.3,379.6,572.7,340.9,572.7,300z
			 M148.3,484.1c-14.5-9.9-28.5-22.3-41.1-37.1c-1.6-1.8-3.1-3.8-4.6-5.7c-1.5-1.9-3.1-3.8-4.5-5.8c-1.4-2-2.8-4-4.3-6.1l-2.1-3.1
			l-2-3.2c-1.3-2.1-2.7-4.2-4-6.4c-1.3-2.2-2.4-4.4-3.7-6.6c-2.6-4.4-4.6-9-6.9-13.6c-0.6-1.1-1.1-2.3-1.6-3.5l-1.5-3.5l-1.5-3.5
			l-0.7-1.8l-0.6-1.8c-1.7-4.8-3.6-9.7-4.9-14.6c-0.7-2.5-1.5-4.9-2.2-7.4l-1.8-7.5c-0.3-1.3-0.6-2.5-0.9-3.8l-0.7-3.8l-1.4-7.6
			c-3.1-20.4-3.4-41.2-1.2-61.2c0.1-1,0.2-1.9,0.4-2.7c0.2-0.8,0.3-1.5,0.5-2c0.3-1.1,0.7-1.7,0.9-1.6c0.2,0.2,0.3,1.2,0.3,2.5
			c0,0.7,0,1.4-0.1,2.3c0,0.8-0.1,1.7-0.2,2.7c-1.9,19.3-1.6,39.3,1.3,59c3,19.7,8.6,39.1,16.5,57.2c8,18.1,18.3,34.8,30.2,49.5
			c0.4,0.5,0.7,0.9,1.1,1.4l1.2,1.3c0.8,0.9,1.5,1.8,2.3,2.6c1.6,1.7,3,3.5,4.6,5.2c1.6,1.7,3.2,3.3,4.8,4.9
			c0.8,0.8,1.6,1.6,2.4,2.4c0.8,0.8,1.7,1.6,2.5,2.3c3.4,3,6.6,6.1,10.1,8.8c1.7,1.4,3.4,2.8,5.1,4.1c1.7,1.3,3.5,2.5,5.3,3.8
			c1.4,1,3.3,2.7,4.1,3.7C150.3,485,149.8,485.2,148.3,484.1z M234.3,424.6c0.1,0.1,0.1,0.2,0.1,0.2L234.3,424.6
			c0.2,0.1,0.3,0.2,0.3,0.4c0.1,0.2,0.1,0.4,0.1,0.5l-0.7-0.7c0,0,0,0,0,0c0,0,0,0,0,0l-0.7-0.7c0.1,0,0.3,0,0.5,0.1
			C234.1,424.3,234.2,424.4,234.3,424.6c-0.1-0.1-0.2-0.1-0.3-0.1C234.1,424.5,234.2,424.5,234.3,424.6z"/>
	</g>
</g>
<g>
	<g>
		<path class="st1" d="M293.9,517c0,0,2.6-27.2-3.8-35c-6.4-7.8,11.8-21,9.1-29c-2.7-8,0.3-14.5,0.3-14.5l18.9-73.6l2.7-5.3l-6.5-3
			c0,0,85.1-254.3,95-263.8c9.8-9.4,8.3-17.1,17.7-7.3s10.3,24.6,5.9,27.1c-4.3,2.5-74.1,258.5-74.1,258.5l-4.8-0.1l-32.2,87l-4,1.3
			l-9.2,33.8L293.9,517z"/>
		<path id="XMLID_1_" class="st7" d="M294.6,514.2c0,0,3.1-35.5-4.7-37c-7.8-1.6,10.1-22.8,10.1-22.8l20.7,4.5c0,0-8.1,29.6-12.3,33
			C304.1,495.2,294.6,514.2,294.6,514.2z"/>
		
			<rect x="287.8" y="391.4" transform="matrix(0.3218 -0.9468 0.9468 0.3218 -164.8423 583.2375)" class="st8" width="73.7" height="30.6"/>
		
			<rect x="309.5" y="438.7" transform="matrix(0.2631 -0.9648 0.9648 0.2631 -205.3073 633.2272)" class="st9" width="4.7" height="24.6"/>
		<path class="st10" d="M337.8,367.9l13.4,5c2.4-6.5-1.6-14.2-8.9-16.9c-7.3-2.7-15.4,0.4-17.8,6.9c0,0.1-0.1,0.2-0.1,0.3
			L337.8,367.9z"/>
		<path class="st7" d="M325.1,353.3c0,0,19-13.3,27.8,4.5c8.8,17.9,96.2-283.3,65.3-251.2S325.1,353.3,325.1,353.3z"/>
	</g>
	<g>
		<path d="M400.9,341c0.5-0.2,1.2-0.6,2-1.1c0.9-0.5,1-0.1,0.6,1.1c-1,2-1.8,3.3-2.6,4c-0.7,0.7-1.6,1.8-2.6,3.3
			c-3.4,3.7-7,7.2-10.6,10.6c-1.2,1.2-2.6,2.6-4.2,4c-1.6,1.5-3.2,2.7-5,3.7c-8.1,4.9-17.4,8-27.9,9.2c-4.2,0.5-8.4,0.7-12.7,0.7
			c-4.3,0-8.5,0-12.7,0c-4.9-0.2-9.8-0.4-14.7-0.4c-4.9,0-9.8,0-14.7,0c-9.8-0.2-19.6-0.4-29.4-0.6c-9.8-0.1-19.7-0.2-29.7-0.2
			c-0.5,0-0.5-0.2,0-0.7c-0.5,0.5-0.7,0.5-0.7,0c0-9,0-18,0-27c0-8.9-0.1-17.9-0.4-27c0-17.1,0-34.1,0-51c0-16.9-0.1-33.9-0.4-51
			c0-13.5,0-26.8,0-40.2c0-13.3-0.1-26.6-0.4-39.8c-1-2.9-2.1-4.8-3.5-5.5c-1.3-0.7-2.6-0.9-3.9-0.4c-1.5,0.5-2.9,1.6-4.4,3.3
			c-0.5,0.5-0.8,1-0.9,1.7c-0.1,0.6-0.4,1.2-0.9,1.7c-8.8,15.7-13.9,32.7-15.4,51c-1,13,0.1,25.8,3.1,38.5
			c3.1,12.7,7.8,24.7,14.1,36c0.2,1.5-0.2,2.8-1.5,4c-0.5,0.5-0.9,1-1.3,1.7c-0.4,0.6-0.8,1.3-1.3,2c-2.2,2.7-4.5,5.3-6.8,7.7
			c-2.3,2.4-4.7,5-7.2,7.7c-0.5,0.5-1.9,1.8-4.2,3.9c-2.3,2.1-4.8,4.3-7.5,6.6c-2.7,2.3-5.2,4.3-7.5,6.1c-2.3,1.7-3.6,2.3-3.9,1.8
			c-8.1-13.7-13.5-28.4-16.1-44c-2.2-13.2-2.4-26.5-0.6-40c1.8-13.5,5.7-26.3,11.6-38.5c3.9-7.6,8.3-14.7,13-21.5
			c4.8-6.7,10-13.3,15.6-19.6c5.1-5.6,10.5-11.2,16-16.7c5.5-5.5,11.2-10.7,17.1-15.6c5.1-4.6,10.6-9,16.5-13.2
			c0.5-0.5,0.9-0.9,1.3-1.1c0.4-0.2,0.8-0.6,1.3-1.1c0.5-0.5,1.2-1,2-1.5c0.9-0.5,1.7-0.9,2.4-1.1c0.7-0.5,1.7-0.7,2.9-0.7v0.4h24.6
			h36c9.3-0.2,18.7-0.4,28.3-0.4s19,0,28.3,0c0,1-0.4,1.8-1.1,2.6c-0.5,0.5-0.8,0.9-0.9,1.3c-0.1,0.4-0.4,0.8-0.9,1.3
			c-1.5,2-3,3.7-4.6,5.3c-1.6,1.6-3.1,3.2-4.6,5c-1.7,1.7-3.4,3.4-5.1,5c-1.7,1.6-3.4,3.1-5.1,4.6c-0.7,0.5-1.6,1.1-2.6,1.8
			c-1,0.7-2,1.1-2.9,1.1h-36.7c-6.9,0-13.6,0-20.2,0c-6.6,0-13.2,0.1-19.8,0.4h-14.7c0,4.4,0,8.8,0,13.2c0,4.4,0.1,8.8,0.4,13.2
			c0,16.9,0,33.5,0,49.9c0,16.4,0.1,33,0.4,49.9h37.8c4.9,0,9.7,0,14.5,0s9.2-0.1,13.2-0.2c4-0.1,7.5-0.2,10.3-0.2
			c2.8,0,4.8,0,6.1,0c0,0.5-1.4,2.1-4.2,5c-2.8,2.8-5.9,5.9-9.4,9.4c-4.2,4.2-8.8,8.7-13.9,13.6l-54.3,0.4c0,12.2,0,24.4,0,36.5
			c0,12.1,0.1,24.3,0.4,36.5v0.4h0.4c4.2,0,8.3,0.1,12.5,0.2c4.2,0.1,8.3,0.2,12.5,0.2c7.3,0,14.7,0.1,22,0.2
			c7.3,0.1,14.7,0.2,22,0.2c6.6,0.2,13.3,0.4,20,0.6c6.7,0.1,13.4-0.1,20-0.6c5.1-0.5,10-1.2,14.7-2.2c1.2-0.5,2.4-0.9,3.7-1.3
			c1.2-0.4,2.4-0.8,3.7-1.3c1.5-0.5,2.6-1,3.3-1.5c0.5-0.2,0.9-0.4,1.1-0.4c0.2,0,0.5-0.1,0.7-0.4L400.9,341z"/>
	</g>
</g>
</svg>
